<svg xmlns="http://www.w3.org/2000/svg" viewBox="0 0 24 24" width="256" height="256">
  <defs>
    <linearGradient id="trainGrad" x1="0%" y1="0%" x2="100%" y2="100%">
      <stop offset="0%" style="stop-color:#1976D2;stop-opacity:1" />
      <stop offset="100%" style="stop-color:#0D47A1;stop-opacity:1" />
    </linearGradient>
  </defs>
  <!-- Background circle -->
  <circle cx="12" cy="12" r="11" fill="url(#trainGrad)"/>
  <!-- Train icon -->
  <g fill="white" transform="translate(4, 5) scale(0.67)">
    <!-- Train body -->
    <path d="M12,4L3,7L4.5,8.5L3,10V11H21V10L19.5,8.5L21,7L12,4M3,12V15H5V19H3V21H21V19H19V15H21V12H3M7,15H9V19H7V15M11,15H13V19H11V15M15,15H17V19H15V15Z"/>
  </g>
</svg>
